<svg width="36" height="35" viewBox="0 0 36 35" fill="none" xmlns="http://www.w3.org/2000/svg">
<g id="Icon/Solid/check-circle">
<path id="Icon" fill-rule="evenodd" clip-rule="evenodd" d="M18.0001 31.5C25.953 31.5 32.4001 25.232 32.4001 17.5C32.4001 9.76801 25.953 3.5 18.0001 3.5C10.0472 3.5 3.6001 9.76801 3.6001 17.5C3.6001 25.232 10.0472 31.5 18.0001 31.5ZM24.6729 15.2374C25.3758 14.554 25.3758 13.446 24.6729 12.7626C23.9699 12.0791 22.8302 12.0791 22.1273 12.7626L16.2001 18.5251L13.8729 16.2626C13.1699 15.5791 12.0302 15.5791 11.3273 16.2626C10.6244 16.946 10.6244 18.054 11.3273 18.7374L14.9273 22.2374C15.6302 22.9209 16.7699 22.9209 17.4729 22.2374L24.6729 15.2374Z" fill="#4C3DFF"/>
</g>
</svg>
